<svg width="76" height="88" fill="none" xmlns="http://www.w3.org/2000/svg"><path opacity=".3" d="M49 18.852l-.014 38.577a2.423 2.423 0 01-2.412 2.416H2.412A2.423 2.423 0 010 57.429V2.916A2.423 2.423 0 012.412.5h29.486a2.423 2.423 0 012.412 2.416v7.157c0 2.685 2.05 4.818 4.755 4.818h7.523A2.423 2.423 0 0149 17.307v1.545z" fill="#fff"/><path opacity=".69" d="M75 38.424l-.019 44.87a3.214 3.214 0 01-3.2 3.206H13.2a3.214 3.214 0 01-3.2-3.205V17.284a3.214 3.214 0 013.2-3.205h39.113c1.757 0 3.2 1.443 3.2 3.205v9.494c0 3.561 2.72 6.391 6.308 6.391H71.8c1.757 0 3.2 1.444 3.2 3.206v2.049z" stroke="#fff" stroke-width="2"/><path fill-rule="evenodd" clip-rule="evenodd" d="M55.558 74.412a13.17 13.17 0 01-9.38-3.885 13.176 13.176 0 01-3.886-9.379c0-3.544 1.38-6.875 3.885-9.38a13.172 13.172 0 019.38-3.885 13.17 13.17 0 019.379 3.886 13.174 13.174 0 013.887 9.38c0 3.543-1.381 6.873-3.887 9.379a13.173 13.173 0 01-9.378 3.884zm0-20.99a7.673 7.673 0 00-5.464 2.262 7.664 7.664 0 00-2.263 5.464 7.66 7.66 0 002.263 5.463 7.674 7.674 0 005.464 2.263 7.673 7.673 0 005.462-2.263 7.671 7.671 0 002.264-5.463 7.675 7.675 0 00-2.264-5.464 7.672 7.672 0 00-5.462-2.263z" fill="#ECFFFE"/><path fill-rule="evenodd" clip-rule="evenodd" d="M48.145 69.168a1.82 1.82 0 01-.596-.1L8.283 55.677a1.845 1.845 0 111.19-3.494l39.267 13.39a1.848 1.848 0 01-.595 3.594zm14.012-14.015a1.846 1.846 0 01-1.747-1.251L47.021 14.637a1.845 1.845 0 113.494-1.191L63.904 52.71a1.843 1.843 0 01-1.747 2.443zm-9.749-2.059a1.845 1.845 0 01-1.628-.97L36.767 26.095a1.846 1.846 0 013.253-1.751l14.012 26.029a1.846 1.846 0 01-1.624 2.72zm2.172 9.51a1.84 1.84 0 01-1.304-.542L11.382 20.17a1.846 1.846 0 012.61-2.611l41.894 41.893a1.845 1.845 0 01-1.305 3.152z" fill="#ECFFFE"/></svg>