<svg width="76" height="88" fill="none" xmlns="http://www.w3.org/2000/svg"><path opacity=".3" d="M49 18.852l-.014 38.577a2.423 2.423 0 01-2.412 2.416H2.412A2.423 2.423 0 010 57.429V2.916A2.423 2.423 0 012.412.5h29.486a2.423 2.423 0 012.412 2.416v7.157c0 2.685 2.05 4.818 4.755 4.818h7.523A2.423 2.423 0 0149 17.307v1.545z" fill="#fff"/><path opacity=".69" d="M75 38.424l-.019 44.87a3.214 3.214 0 01-3.2 3.206H13.2a3.214 3.214 0 01-3.2-3.205V17.284a3.214 3.214 0 013.2-3.205h39.113c1.757 0 3.2 1.443 3.2 3.205v9.494c0 3.561 2.72 6.391 6.308 6.391H71.8c1.757 0 3.2 1.444 3.2 3.206v2.049z" stroke="#fff" stroke-width="2"/><path fill-rule="evenodd" clip-rule="evenodd" d="M26.357 18.314a3.923 3.923 0 01-3.705-2.629 3.865 3.865 0 01.18-2.983 3.891 3.891 0 012.243-1.983c2.007-.689 4.298.433 4.988 2.415a3.905 3.905 0 01-2.426 4.965 3.905 3.905 0 01-1.28.215zm0-4.863a.945.945 0 00-.313.054.954.954 0 00-.594 1.216.972.972 0 001.22.593.958.958 0 00-.313-1.863z" fill="#ECFFFE"/><path fill-rule="evenodd" clip-rule="evenodd" d="M28.752 25.797l-2.98-8.59 2.796-.963 2.98 8.59-2.796.963zM24.155 68.04l-5.408-8.783 2.523-1.541 5.408 8.784-2.523 1.54zm39.55-24.96l-5.407-8.784 2.522-1.54 5.408 8.783-2.523 1.541zM49.899 69.283a6.246 6.246 0 01-5.358-2.986L29.983 42.65c-1.81-2.94-.881-6.799 2.07-8.602l.746-.454a6.28 6.28 0 013.276-.923 6.249 6.249 0 015.358 2.986L55.99 59.304a6.183 6.183 0 01.755 4.728 6.22 6.22 0 01-2.825 3.874l-.741.453a6.293 6.293 0 01-3.279.924zM36.075 37.09c-.336 0-.668.094-.957.272l-.746.455a1.831 1.831 0 00-.605 2.522l14.555 23.647c.512.833 1.684 1.125 2.535.605l.74-.453c.423-.257.716-.66.831-1.137a1.817 1.817 0 00-.22-1.385L37.65 37.966a1.835 1.835 0 00-1.575-.876z" fill="#ECFFFE"/><path fill-rule="evenodd" clip-rule="evenodd" d="M47.28 50.138l-2.319-3.768 9.857-6.02 2.32 3.768-9.857 6.02zM29.973 60.71l-2.32-3.77 9.857-6.02 2.32 3.769-9.857 6.02z" fill="#ECFFFE"/><path fill-rule="evenodd" clip-rule="evenodd" d="M58.545 50.151a2.218 2.218 0 01-1.893-1.054l-6.457-10.489a2.206 2.206 0 01.731-3.04l14.239-8.695a2.217 2.217 0 011.677-.265 2.218 2.218 0 011.374.994L74.67 38.09a2.204 2.204 0 01-.73 3.04l-14.237 8.695a2.214 2.214 0 01-1.159.325zm-3.408-11.97l4.138 6.72 10.455-6.384-4.138-6.72-10.455 6.385zM18.677 74.5a2.212 2.212 0 01-1.89-1.055l-6.459-10.49a2.202 2.202 0 01.732-3.04l14.237-8.694a2.224 2.224 0 013.05.729l6.458 10.488a2.206 2.206 0 01-.73 3.04l-14.238 8.696a2.23 2.23 0 01-1.16.326zM15.27 62.528l4.138 6.722 10.454-6.384-4.139-6.721-10.453 6.383zm14.668-26.015a11.955 11.955 0 01-11.657-9.146 2.21 2.21 0 011.636-2.668l19.014-4.581a2.22 2.22 0 012.679 1.63c1.555 6.405-2.412 12.877-8.843 14.426-.93.224-1.88.339-2.829.339zM23.436 28.4a7.537 7.537 0 006.502 3.692c.597 0 1.198-.072 1.786-.214a7.555 7.555 0 005.77-6.866L23.437 28.4z" fill="#ECFFFE"/></svg>