<svg width="76" height="88" fill="none" xmlns="http://www.w3.org/2000/svg"><path opacity=".3" d="M49 18.852l-.014 38.577a2.423 2.423 0 01-2.412 2.416H2.412A2.423 2.423 0 010 57.429V2.916A2.423 2.423 0 012.412.5h29.486a2.423 2.423 0 012.412 2.416v7.157c0 2.685 2.05 4.818 4.755 4.818h7.523A2.423 2.423 0 0149 17.307v1.545z" fill="#fff"/><path opacity=".69" d="M75 38.424l-.019 44.87a3.214 3.214 0 01-3.2 3.206H13.2a3.214 3.214 0 01-3.2-3.205V17.284a3.214 3.214 0 013.2-3.205h39.113c1.757 0 3.2 1.443 3.2 3.205v9.494c0 3.561 2.72 6.391 6.308 6.391H71.8c1.757 0 3.2 1.444 3.2 3.206v2.049z" stroke="#fff" stroke-width="2"/><path fill-rule="evenodd" clip-rule="evenodd" d="M18.87 29.598c-4.099 0-7.433-3.335-7.433-7.432 0-4.099 3.334-7.433 7.432-7.433 4.098 0 7.433 3.334 7.433 7.433 0 4.097-3.335 7.432-7.433 7.432zm0-11.173a3.746 3.746 0 00-3.741 3.741 3.745 3.745 0 003.74 3.74 3.744 3.744 0 003.74-3.74 3.745 3.745 0 00-3.74-3.741zm34.768 28.85a5.042 5.042 0 01-5.035-5.036 5.04 5.04 0 015.035-5.034 5.04 5.04 0 015.035 5.034 5.041 5.041 0 01-5.035 5.036zm0-6.378c-.741 0-1.343.602-1.343 1.342a1.343 1.343 0 101.344-1.343z" fill="#ECFFFE"/><path fill-rule="evenodd" clip-rule="evenodd" d="M37.65 59.973c-9.905 0-17.963-8.058-17.963-17.962 0-9.905 8.058-17.962 17.962-17.962 8.445 0 15.648 5.744 17.516 13.968l-3.6.819c-1.483-6.533-7.206-11.095-13.916-11.095-7.868 0-14.27 6.402-14.27 14.27 0 7.869 6.402 14.27 14.27 14.27 6.803 0 12.69-4.836 14-11.498l3.624.712c-1.65 8.39-9.061 14.478-17.624 14.478z" fill="#ECFFFE"/><path fill-rule="evenodd" clip-rule="evenodd" d="M42.577 42.81a4.928 4.928 0 11-9.857 0 4.928 4.928 0 019.857 0z" fill="#ECFFFE"/><path fill-rule="evenodd" clip-rule="evenodd" d="M37.65 74.444c-17.444 0-31.634-14.192-31.634-31.634 0-7.062 2.277-13.743 6.585-19.32l4.382 3.385c-3.551 4.599-5.43 10.11-5.43 15.935 0 14.388 11.707 26.095 26.096 26.095S63.744 57.198 63.744 42.81c0-14.39-11.706-26.095-26.095-26.095-4.776 0-9.446 1.3-13.506 3.761l-2.872-4.736a31.594 31.594 0 0116.378-4.563c17.443 0 31.633 14.19 31.633 31.633 0 17.442-14.19 31.634-31.633 31.634z" fill="#ECFFFE"/></svg>