<svg width="52" height="47" fill="none" xmlns="http://www.w3.org/2000/svg"><path opacity=".3" d="M32.56 12.035l-.01 18.7a1.6 1.6 0 01-1.602 1.585H1.603A1.6 1.6 0 010 30.736V1.584A1.6 1.6 0 011.603 0h19.592a1.6 1.6 0 011.603 1.584v4.694c0 1.76 1.362 3.16 3.16 3.16h4.999a1.6 1.6 0 011.603 1.584v1.013z" fill="#2C2C2C"/><path fill-rule="evenodd" clip-rule="evenodd" d="M31.657 24.274a.591.591 0 01-.19-.179 10.792 10.792 0 00-6.366-2.078c-6 0-10.862 4.863-10.862 10.861 0 .14.01.277.019.415l.011.189h-.03a.604.604 0 11-1.207 0 .31.31 0 01.015-.084l.01-.038a17.701 17.701 0 00-.007-.102c-.009-.126-.018-.252-.018-.38 0-5.622 3.85-10.333 9.055-11.673a6.027 6.027 0 01-3.02-5.222 6.034 6.034 0 1112.067 0 6.027 6.027 0 01-3.02 5.222 12.05 12.05 0 014.24 2.05.18.18 0 00-.015.016l-.014.015c.23.183.308.505.156.767a.603.603 0 01-.824.221zm15.342 15.289h-6v6.374c0 .587-.447 1.063-1 1.063-.552 0-1-.476-1-1.063v-6.374h-6c-.552 0-1-.476-1-1.063s.448-1.063 1-1.063h6v-6.374c0-.587.448-1.063 1-1.063.553 0 1 .476 1 1.063v6.374h6c.552 0 1 .476 1 1.063 0 .588-.448 1.063-1 1.063zM25.1 11.155a4.828 4.828 0 110 9.655 4.828 4.828 0 010-9.655z" fill="#2C2C2C"/><path fill-rule="evenodd" clip-rule="evenodd" d="M32.772 4.688l7.417 7.352c.278.288.435.668.445 1.047l-.019 14.256h-1.803l.006-10.29a1.6 1.6 0 00-1.603-1.584h-4.999c-1.798 0-3.16-1.4-3.16-3.16V7.616a1.6 1.6 0 00-1.603-1.584H7.861a1.6 1.6 0 00-1.603 1.584v29.151a1.6 1.6 0 001.603 1.585h21.563v1.871H7.388a2.938 2.938 0 01-2.937-2.937V7.19a2.932 2.932 0 012.937-2.938h24.337c.389 0 .769.158 1.047.436zm5.61 8.38l-6.86-6.851a.448.448 0 00-.77.315v5.49c0 1 .815 1.816 1.816 1.816h5.5a.45.45 0 00.315-.77z" fill="#2C2C2C"/></svg>