<svg width="36" height="36" fill="none" xmlns="http://www.w3.org/2000/svg"><path fill-rule="evenodd" clip-rule="evenodd" d="M35.754 18.179c0 9.8-7.945 17.746-17.746 17.746-9.8 0-17.746-7.945-17.746-17.746C.262 8.379 8.208.433 18.008.433c9.801 0 17.746 7.945 17.746 17.746zm-17.373-3.133c0-.733-.192-1.361-.575-1.887-.638-.857-1.72-1.296-3.248-1.318H8.502v12.364h5.647c.637 0 1.226-.054 1.77-.166a3.476 3.476 0 001.416-.621c.355-.264.651-.588.887-.973a3.57 3.57 0 00.56-1.971c0-.711-.164-1.316-.488-1.812-.328-.498-.81-.861-1.449-1.092.421-.212.74-.447.956-.703.388-.46.58-1.067.58-1.821zM11 16.716v-2.728h2.728c.6 0 1.094.065 1.482.193.449.186.673.566.673 1.143 0 .518-.17.88-.51 1.085-.34.205-.783.307-1.325.307H11zm0 2.046v3.297h3.043c.544 0 .968-.073 1.27-.217.55-.27.824-.784.824-1.544 0-.644-.265-1.086-.798-1.327-.298-.134-.717-.204-1.253-.21H11zm10.461-4.806h5.37v-1.538h-5.37v1.538zm6.498 2.645a3.73 3.73 0 00-1.6-1.353c-.647-.286-1.373-.43-2.18-.43-1.359 0-2.462.425-3.314 1.269-.85.846-1.276 2.06-1.276 3.645 0 1.69.47 2.91 1.415 3.66.941.75 2.03 1.125 3.264 1.125 1.494 0 2.657-.445 3.487-1.333.532-.56.832-1.112.898-1.653h-2.475c-.143.268-.31.478-.5.63-.344.278-.794.418-1.343.418-.523 0-.967-.115-1.337-.344-.61-.369-.93-1.012-.97-1.928h6.752c.01-.79-.015-1.397-.08-1.816a4.437 4.437 0 00-.741-1.89zm-5.872 2.128c.088-.595.304-1.067.646-1.415.343-.349.827-.523 1.447-.523.572 0 1.05.164 1.439.492.384.33.601.81.645 1.446h-4.177z" fill="#fff"/></svg>