<svg width="37" height="36" fill="none" xmlns="http://www.w3.org/2000/svg"><g clip-path="url(#clip0)"><path fill-rule="evenodd" clip-rule="evenodd" d="M36.246 18.179c0 9.8-7.945 17.746-17.746 17.746C8.7 35.925.754 27.98.754 18.179.754 8.379 8.7.433 18.5.433c9.8 0 17.746 7.945 17.746 17.746zm-7.606-.014a10.14 10.14 0 01-.798 3.941 10.209 10.209 0 01-3.673 4.454c-.541.366-1.12.68-1.722.934a10.185 10.185 0 01-7.895 0 10.25 10.25 0 01-1.723-.933 10.222 10.222 0 01-2.737-2.735 10.117 10.117 0 01-1.527-3.623 10.25 10.25 0 010-4.077 10.068 10.068 0 011.527-3.624 10.226 10.226 0 012.737-2.733 10.042 10.042 0 013.629-1.525 10.219 10.219 0 015.989.59 10.174 10.174 0 014.46 3.668 10.028 10.028 0 011.526 3.624c.138.666.207 1.353.207 2.039zM18.5 9.518c2.192 0 4.194.814 5.719 2.157-.042.062-1.282 1.916-4.523 3.13a44.433 44.433 0 00-3.223-5.026l-.014-.019a8.72 8.72 0 012.04-.242zm2.438 7.829a27.78 27.78 0 00-.575-1.254c3.397-1.385 4.79-3.373 4.824-3.42v-.002a8.596 8.596 0 011.97 5.405l-.01-.002c-.228-.048-3.103-.646-6.021-.279a49.96 49.96 0 00-.188-.448zm2.401 7.99a8.65 8.65 0 003.71-5.802c-.177-.057-2.6-.823-5.396-.375 1.136 3.117 1.598 5.655 1.686 6.176zm-3.308-5.777l-.012.004-.01.003-.036.012c-5.11 1.779-6.778 5.363-6.796 5.402a8.65 8.65 0 005.323 1.83 8.629 8.629 0 003.38-.684c-.128-.756-.63-3.404-1.85-6.567zM9.847 17.89c.153.006 4.432.102 8.89-1.231.249.485.486.978.704 1.47a8.539 8.539 0 00-.342.103c-4.674 1.51-7.043 5.708-7.04 5.712a8.603 8.603 0 01-2.215-5.968c0-.029.002-.057.003-.086zm.178-1.507a8.66 8.66 0 014.78-6.039 52.07 52.07 0 013.215 4.983c-4.114 1.092-7.69 1.059-7.986 1.056h-.009z" fill="#fff"/></g><defs><clipPath id="clip0"><path fill="#fff" transform="translate(.754 .433)" d="M0 0h35.492v35.492H0z"/></clipPath></defs></svg>