<svg width="52" height="47" fill="none" xmlns="http://www.w3.org/2000/svg"><path opacity=".3" d="M32.56 12.035l-.009 18.7a1.6 1.6 0 01-1.603 1.585H1.603A1.6 1.6 0 010 30.736V1.584A1.6 1.6 0 011.603 0h19.593a1.6 1.6 0 011.603 1.584v4.694c0 1.76 1.362 3.16 3.16 3.16h4.998a1.6 1.6 0 011.603 1.584v1.013z" fill="#2C2C2C"/><path fill-rule="evenodd" clip-rule="evenodd" d="M28.834 21.167a2.333 2.333 0 100 4.667 2.333 2.333 0 000-4.667zm-2.357-.024a3.333 3.333 0 114.713 4.714 3.333 3.333 0 01-4.713-4.714z" fill="#2C2C2C"/><path fill-rule="evenodd" clip-rule="evenodd" d="M23.167 26.833a2.333 2.333 0 102.334 2.333v-2.333h-2.334zm-3.333 2.333a3.333 3.333 0 013.333-3.333h3.334v3.333a3.333 3.333 0 01-6.63.5h-.037v-.5zM25.5 14.5h3.334a3.333 3.333 0 010 6.667H25.5V14.5zm1 1v4.667h2.334a2.334 2.334 0 000-4.667H26.5z" fill="#2C2C2C"/><path fill-rule="evenodd" clip-rule="evenodd" d="M20.81 15.476a3.333 3.333 0 012.357-.976h3.334v6.667h-3.334a3.333 3.333 0 01-3.295-2.834h-.038v-.5c0-.884.351-1.732.976-2.357zm.024 2.357a2.333 2.333 0 002.333 2.334h2.334V15.5h-2.334a2.333 2.333 0 00-2.333 2.333z" fill="#2C2C2C"/><path fill-rule="evenodd" clip-rule="evenodd" d="M20.81 21.143a3.334 3.334 0 012.357-.976H26.5v6.667h-3.333A3.333 3.333 0 0119.872 24h-.038v-.5c0-.884.351-1.732.976-2.357zm.024 2.357a2.333 2.333 0 002.333 2.333h2.334v-4.666h-2.334a2.334 2.334 0 00-2.333 2.333z" fill="#2C2C2C"/><path fill-rule="evenodd" clip-rule="evenodd" d="M32.772 4.688l7.417 7.352c.278.288.436.668.445 1.047l-.019 16.256h-1.803l.006-12.29a1.6 1.6 0 00-1.603-1.584h-4.999c-1.797 0-3.16-1.4-3.16-3.16V7.616a1.6 1.6 0 00-1.602-1.584H7.86a1.6 1.6 0 00-1.603 1.584v29.151a1.6 1.6 0 001.603 1.585h21.564v1.871H7.388a2.938 2.938 0 01-2.937-2.937V7.19a2.932 2.932 0 012.937-2.938h24.337c.39 0 .769.158 1.047.436zm5.61 8.38l-6.86-6.851a.448.448 0 00-.77.315v5.49c0 1 .816 1.816 1.817 1.816h5.499a.45.45 0 00.315-.77zm5.411 18.725a1 1 0 011.415 0l6.5 6.5a1 1 0 010 1.414l-6.5 6.5a1 1 0 01-1.415-1.414L48.586 40H34.5a1 1 0 110-2h14.086l-4.793-4.793a1 1 0 010-1.414z" fill="#2C2C2C"/></svg>