<svg width="36" height="36" fill="none" xmlns="http://www.w3.org/2000/svg"><path fill-rule="evenodd" clip-rule="evenodd" d="M35.738 18.179c0 9.8-7.945 17.746-17.746 17.746C8.19 35.925.246 27.98.246 18.179.246 8.379 8.19.433 17.992.433c9.8 0 17.746 7.945 17.746 17.746zM13.81 8.099c1.082-.048 1.428-.06 4.182-.06h-.003c2.754 0 3.099.012 4.18.06 1.08.05 1.817.221 2.464.472a4.955 4.955 0 011.795 1.17 4.945 4.945 0 011.17 1.796c.25.644.421 1.381.472 2.46.048 1.082.061 1.428.061 4.182 0 2.754-.013 3.099-.061 4.18-.05 1.08-.222 1.817-.471 2.462a4.977 4.977 0 01-1.17 1.796 4.96 4.96 0 01-1.796 1.17c-.645.251-1.383.422-2.462.471-1.082.05-1.426.062-4.18.062-2.754 0-3.1-.012-4.182-.062-1.079-.049-1.816-.22-2.461-.47a4.965 4.965 0 01-1.796-1.171 4.97 4.97 0 01-1.17-1.797c-.25-.644-.42-1.381-.47-2.46-.05-1.082-.062-1.427-.062-4.18 0-2.755.013-3.1.061-4.182.049-1.08.22-1.817.471-2.462a4.978 4.978 0 011.17-1.796 4.965 4.965 0 011.797-1.17c.645-.25 1.382-.42 2.461-.47zm3.844 1.767h-.572v-.003c-1.89.002-2.252.015-3.188.057-.989.046-1.525.21-1.883.35a3.148 3.148 0 00-1.166.759 3.142 3.142 0 00-.759 1.166c-.139.357-.304.894-.35 1.883-.048 1.069-.058 1.388-.058 4.096s.01 3.03.059 4.098c.045.989.21 1.526.349 1.883.184.473.404.81.759 1.165a3.14 3.14 0 001.166.759c.358.138.894.304 1.883.35 1.069.048 1.39.058 4.098.058 2.707 0 3.028-.01 4.097-.059.989-.045 1.526-.21 1.883-.35a3.12 3.12 0 001.165-.758 3.14 3.14 0 00.76-1.165c.138-.357.303-.893.349-1.882.048-1.069.059-1.39.059-4.096 0-2.707-.01-3.028-.06-4.097-.044-.988-.21-1.525-.349-1.882a3.148 3.148 0 00-.759-1.166 3.135 3.135 0 00-1.165-.759c-.357-.138-.894-.304-1.883-.349-1.069-.048-1.39-.058-4.097-.058h-.338zm5.75 1.684a1.217 1.217 0 100 2.433 1.217 1.217 0 000-2.433zm-5.412 1.421a5.208 5.208 0 100 10.416 5.208 5.208 0 000-10.415zm0 1.828a3.38 3.38 0 110 6.76 3.38 3.38 0 010-6.76z" fill="#fff"/></svg>