<svg width="46" height="46" fill="none" xmlns="http://www.w3.org/2000/svg"><path fill-rule="evenodd" clip-rule="evenodd" d="M46 23c0 12.703-10.297 23-23 23S0 35.703 0 23 10.297 0 23 0s23 10.297 23 23zm-28.133-9.737c-.032-1.467-1.07-2.584-2.757-2.584-1.686 0-2.789 1.117-2.789 2.584 0 1.437 1.07 2.587 2.725 2.587h.032c1.719 0 2.79-1.15 2.79-2.587zm-.324 4.63h-4.93v14.964h4.93V17.892zm12.102-.352c3.244 0 5.676 2.14 5.676 6.736v8.58h-4.93V24.85c0-2.011-.713-3.383-2.497-3.383-1.362 0-2.173.925-2.53 1.818-.13.32-.162.767-.162 1.214v8.357h-4.93s.064-13.56 0-14.964h4.93v2.12c.654-1.02 1.826-2.472 4.443-2.472z" fill="#3FC2BB"/></svg>