<svg width="24" height="23" fill="none" xmlns="http://www.w3.org/2000/svg"><path fill-rule="evenodd" clip-rule="evenodd" d="M5.543 7.892H.613v14.965h4.93V7.892zm.324-4.629C5.835 1.796 4.797.68 3.11.68 1.424.679.321 1.796.321 3.263c0 1.437 1.07 2.587 2.725 2.587h.032c1.719 0 2.79-1.15 2.79-2.587zm17.454 11.014c0-4.597-2.432-6.736-5.676-6.736-2.617 0-3.789 1.452-4.443 2.471v-2.12h-4.93c.064 1.405 0 14.965 0 14.965h4.93V14.5c0-.447.032-.893.162-1.214.356-.893 1.168-1.818 2.53-1.818 1.784 0 2.498 1.372 2.498 3.383v8.006h4.93v-8.58z" fill="#3FC2BB"/></svg>