<svg width="129" height="40" fill="none" xmlns="http://www.w3.org/2000/svg"><path fill-rule="evenodd" clip-rule="evenodd" d="M10.94.171a1.893 1.893 0 01.942 2.512l-7.02 15.331H15.86a1.9 1.9 0 011.903 1.896v17.37a1.9 1.9 0 01-1.904 1.896 1.9 1.9 0 01-1.903-1.896V21.805H1.903c-.647 0-1.25-.327-1.6-.87a1.889 1.889 0 01-.131-1.812L8.418 1.11A1.906 1.906 0 0110.94.17z" fill="#fff"/><path d="M72.34 17.06c-2 0-3.666-.61-5-1.834-1.332-1.223-1.999-2.714-1.999-4.473 0-1.758.675-3.249 2.025-4.472 1.35-1.238 3.024-1.858 5.024-1.858s3.666.612 4.999 1.835c1.35 1.223 2.025 2.722 2.025 4.496 0 1.743-.675 3.233-2.025 4.472-1.35 1.223-3.033 1.835-5.05 1.835zm.05-2.407c1.2 0 2.166-.375 2.9-1.124.732-.75 1.1-1.675 1.1-2.775 0-1.086-.384-2.003-1.15-2.753-.767-.764-1.734-1.146-2.9-1.146-1.183 0-2.141.374-2.875 1.123-.733.75-1.1 1.675-1.1 2.776 0 1.07.384 1.987 1.15 2.752.767.764 1.725 1.146 2.875 1.146zm14.347 2.224c-.502 0-.957-.295-1.16-.752l-4.3-9.674a1.264 1.264 0 011.16-1.775h.438c.52 0 .988.316 1.18.797l2.056 5.156c.423 1.061 1.931 1.063 2.357.003l2.073-5.162a1.27 1.27 0 011.178-.794h.37c.916 0 1.53.938 1.16 1.773l-4.28 9.674a1.269 1.269 0 01-1.16.754h-1.072zm15.157.183c-1.933 0-3.549-.588-4.849-1.765-1.283-1.178-1.924-2.699-1.924-4.564 0-1.759.608-3.25 1.824-4.473 1.217-1.223 2.758-1.835 4.625-1.835 1.999 0 3.549.627 4.649 1.881 1.116 1.239 1.674 2.783 1.674 4.633 0 .453-.38.78-.835.78h-7.407c-.787 0-1.406.733-.996 1.402.202.331.457.62.765.868.683.536 1.525.803 2.524.803.981 0 1.9-.274 2.758-.823.499-.319 1.155-.347 1.614.027.532.434.599 1.234.055 1.653-1.222.942-2.715 1.414-4.477 1.414zM98.55 8.502c-.358.68.258 1.381 1.029 1.381h3.903c.754 0 1.368-.672 1.045-1.35a3.47 3.47 0 00-.658-.944c-.583-.596-1.358-.894-2.324-.894-.917 0-1.683.298-2.3.894a3.48 3.48 0 00-.695.913zm13.649 8.283c-.7 0-1.268-.565-1.268-1.263V5.939c0-.697.568-1.263 1.268-1.263h1.272c.267 0 .484.216.484.482 0 .52.893.765 1.277.413.656-.601 1.451-.963 2.386-1.084.561-.073 1.011.404 1.011.969v1.752a.174.174 0 01-.175.174c-1.366 0-2.458.413-3.274 1.239-.817.81-1.225 1.995-1.225 3.554v3.347c0 .698-.568 1.263-1.269 1.263h-.487z" fill="#fff"/><path fill-rule="evenodd" clip-rule="evenodd" d="M40.9 5.492c-6.742-3.274-14.67-1.149-18.78 4.626a1.908 1.908 0 01-2.654.45 1.89 1.89 0 01-.452-2.643C24.21.627 34.161-1.998 42.57 2.085c9.33 4.531 13.301 15.655 8.79 24.873-4.512 9.218-15.757 12.953-25.09 8.42a1.892 1.892 0 01-.876-2.534 1.907 1.907 0 012.545-.873c7.49 3.638 16.432.614 20-6.674 3.567-7.288.452-16.167-7.039-19.805z" fill="#fff"/><path fill-rule="evenodd" clip-rule="evenodd" d="M31.719 35.384a1.9 1.9 0 011.903-1.895h17.763a1.9 1.9 0 011.903 1.895 1.9 1.9 0 01-1.903 1.896H33.622a1.9 1.9 0 01-1.903-1.896z" fill="#fff"/><path d="M81.835 36.994c-.7 0-1.269-.566-1.269-1.264V20.85c0-.698.568-1.263 1.27-1.263h.45c.7 0 1.268.565 1.268 1.263v14.88c0 .698-.568 1.264-1.269 1.264h-.45zm11.822.286c-1.976 0-3.622-.636-4.939-1.908-1.317-1.271-1.975-2.821-1.975-4.65 0-1.827.666-3.377 2-4.649 1.333-1.287 2.988-1.931 4.963-1.931s3.622.636 4.938 1.907c1.334 1.272 2.001 2.83 2.001 4.674 0 1.812-.667 3.362-2 4.65-1.334 1.271-2.996 1.907-4.988 1.907zm.049-2.504c1.185 0 2.14-.39 2.864-1.168.725-.78 1.087-1.74 1.087-2.885 0-1.129-.379-2.082-1.136-2.861-.757-.795-1.712-1.193-2.864-1.193-1.17 0-2.116.39-2.84 1.169-.724.779-1.086 1.74-1.086 2.885 0 1.113.378 2.066 1.135 2.861.758.795 1.704 1.192 2.84 1.192zm14.2 2.314a1.27 1.27 0 01-1.169-.775l-4.291-10.157a1.264 1.264 0 011.169-1.754h.423c.528 0 1.001.326 1.187.818l2.014 5.313c.412 1.088 1.958 1.09 2.373.002l2.03-5.318a1.27 1.27 0 011.186-.815h.354c.906 0 1.52.92 1.17 1.752l-4.271 10.157a1.27 1.27 0 01-1.17.776h-1.005zm14.947.19c-1.909 0-3.506-.612-4.79-1.836-1.268-1.224-1.902-2.806-1.902-4.745 0-1.828.601-3.378 1.803-4.65 1.202-1.271 2.724-1.907 4.568-1.907 1.975 0 3.506.652 4.593 1.955 1.102 1.288 1.654 2.893 1.654 4.816 0 .47-.394.811-.865.811h-7.271c-.783 0-1.402.723-1.022 1.404.206.367.468.686.787.957.675.556 1.507.834 2.494.834.95 0 1.842-.274 2.675-.822.52-.342 1.215-.373 1.689.033.508.436.574 1.213.058 1.64-1.217 1.007-2.707 1.51-4.471 1.51zm-3.33-8.845c-.332.69.283 1.382 1.05 1.382h3.839c.752 0 1.363-.665 1.065-1.352a3.64 3.64 0 00-.673-1.033c-.576-.62-1.342-.93-2.297-.93-.905 0-1.662.31-2.271.93-.293.29-.531.625-.713 1.004z" fill="#fff"/></svg>